<svg xmlns="http://www.w3.org/2000/svg" xmlns:xlink="http://www.w3.org/1999/xlink" width="52" height="52" viewBox="0 0 512 512">
  <defs>
    <linearGradient id="linear-gradient" x1="0.5" x2="0.5" y2="1" gradientUnits="objectBoundingBox">
      <stop offset="0" stop-color="#00a3ff"/>
      <stop offset="1" stop-color="#005db3"/>
    </linearGradient>
    <clipPath id="clip-Folder_1">
      <rect width="512" height="512"/>
    </clipPath>
  </defs>
  <g id="Folder_1" data-name="Folder – 1" clip-path="url(#clip-Folder_1)">
    <g id="パス_5" data-name="パス 5" transform="translate(76.276 158.015)" stroke-miterlimit="10" fill="url(#linear-gradient)">
      <path d="M.9,301.447,54.634-15.08h81.44l63.389,168.758L262.433-15.08h81.44l53.734,316.527h-81.86L288.46,119.255,213.737,301.447H180.993L110.047,119.255,82.76,301.447Z" stroke="none"/>
      <path d="M 397.015380859375 300.9465942382812 L 343.4512939453125 -14.58001136779785 L 262.7802124023438 -14.58001136779785 L 199.9320526123047 153.8530426025391 L 199.4651641845703 155.1043395996094 L 198.9955596923828 153.8540344238281 L 135.7281341552734 -14.58001136779785 L 55.05618667602539 -14.58001136779785 L 1.492047429084778 300.9465942382812 L 82.32955169677734 300.9465942382812 L 109.5525588989258 119.1808853149414 L 109.8309555053711 117.3220901489258 L 110.5129547119141 119.073486328125 L 181.3344573974609 300.9465942382812 L 213.4013519287109 300.9465942382812 L 287.9978637695312 119.065185546875 L 288.6862487792969 117.3867874145508 L 288.9549560546875 119.1808853149414 L 316.1779174804688 300.9465942382812 L 397.015380859375 300.9465942382812 M 397.607421875 301.4465942382812 L 315.7472229003906 301.4465942382812 L 288.46044921875 119.2549362182617 L 213.7367095947266 301.4465942382812 L 180.9926147460938 301.4465942382812 L 110.0470581054688 119.2549362182617 L 82.76026153564453 301.4465942382812 L 0.9000079035758972 301.4465942382812 L 54.63390731811523 -15.08001136779785 L 136.0744018554688 -15.08001136779785 L 199.4636077880859 153.6782379150391 L 262.43310546875 -15.08001136779785 L 343.8735656738281 -15.08001136779785 L 397.607421875 301.4465942382812 Z" stroke="none" fill="rgba(255,255,255,0.3)"/>
    </g>
    <g id="パス_3" data-name="パス 3" transform="translate(36.537 67.618)" fill="rgba(125,204,255,0.2)" stroke-miterlimit="10">
      <path d="M107.358,166.795h19.968q31.3,0,48.032-12.952t16.73-37.238q0-24.286-16.73-37.238T127.327,66.413H107.358Zm232.6,225.05H208.28L107.358,235.335V391.844H1.58V-15.08h164.6q34,0,59.365,9.984t41.826,27.254A114.911,114.911,0,0,1,292.2,62.1a139.182,139.182,0,0,1,8.365,48.572q0,46.413-22.4,75.286t-66.112,39.127Z" stroke="none"/>
      <path d="M 2.079986572265625 -14.58004760742188 L 2.079986572265625 391.3441162109375 L 106.8584747314453 391.3441162109375 L 106.8584747314453 235.3348541259766 L 106.8584747314453 233.6367950439453 L 107.7786865234375 235.0639038085938 L 208.55224609375 391.3441162109375 L 338.9495239257812 391.3441162109375 L 211.6608428955078 225.3851165771484 L 211.1896820068359 224.7707977294922 L 211.943359375 224.5940093994141 C 219.1724700927734 222.8982696533203 226.0555725097656 220.7887420654297 232.4014739990234 218.3240051269531 C 238.7437438964844 215.8606414794922 244.7279968261719 212.9731140136719 250.1881103515625 209.7416381835938 C 255.6453552246094 206.5118560791016 260.73291015625 202.8472747802734 265.3093566894531 198.849853515625 C 269.8846435546875 194.8534393310547 274.078369140625 190.411376953125 277.7740478515625 185.6470184326172 C 281.4698486328125 180.8825378417969 284.7493591308594 175.6838073730469 287.521484375 170.1952209472656 C 290.2946166992188 164.70458984375 292.6383666992188 158.768798828125 294.4875793457031 152.5527038574219 C 296.3378295898438 146.3331146240234 297.7452087402344 139.6575317382812 298.6706237792969 132.7113800048828 C 299.5965881347656 125.7612762451172 300.0660400390625 118.344482421875 300.0660400390625 110.6671142578125 C 300.0660400390625 102.1007995605469 299.3648986816406 93.68600463867188 297.9820556640625 85.656494140625 C 296.5995788574219 77.62899780273438 294.4967346191406 69.7601318359375 291.73193359375 62.26837158203125 C 288.9682006835938 54.77969360351562 285.4878540039062 47.63796997070312 281.3873596191406 41.04159545898438 C 277.2871704101562 34.44558715820312 272.4511108398438 28.20843505859375 267.0134887695312 22.50338745117188 C 261.5789794921875 16.80160522460938 255.3218383789062 11.62884521484375 248.4158325195312 7.128814697265625 C 241.5057373046875 2.626068115234375 233.7508392333984 -1.330291748046875 225.3665771484375 -4.630462646484375 C 216.9833068847656 -7.9302978515625 207.7566223144531 -10.44036865234375 197.9427795410156 -12.09088134765625 C 188.1221008300781 -13.7425537109375 177.4369964599609 -14.58004760742188 166.1842651367188 -14.58004760742188 L 2.079986572265625 -14.58004760742188 M 127.3268432617188 167.2945861816406 L 107.3584747314453 167.2945861816406 L 106.8584747314453 167.2945861816406 L 106.8584747314453 166.7945861816406 L 106.8584747314453 66.41281127929688 L 106.8584747314453 65.91281127929688 L 107.3584747314453 65.91281127929688 L 127.3268432617188 65.91281127929688 C 137.7559967041016 65.91281127929688 147.1056213378906 67.008056640625 155.1159515380859 69.16812133789062 C 159.1291046142578 70.25033569335938 162.8913726806641 71.62274169921875 166.2982635498047 73.24722290039062 C 169.7100982666016 74.87405395507812 172.8615264892578 76.7994384765625 175.6650543212891 78.96990966796875 C 178.4720458984375 81.14312744140625 180.9634246826172 83.58868408203125 183.0698394775391 86.23873901367188 C 185.1772613525391 88.88995361328125 186.9579925537109 91.819580078125 188.3627319335938 94.94622802734375 C 189.7660980224609 98.06979370117188 190.8331604003906 101.4771118164062 191.5343170166016 105.0733947753906 C 192.2343139648438 108.6635437011719 192.5892028808594 112.5429077148438 192.5892028808594 116.6036987304688 C 192.5892028808594 120.6644897460938 192.2343139648438 124.5438079833984 191.5343170166016 128.1339569091797 C 190.8331604003906 131.7302703857422 189.7660980224609 135.1375427246094 188.3627319335938 138.2611694335938 C 186.9579925537109 141.3878021240234 185.1772613525391 144.3173828125 183.0698394775391 146.9686431884766 C 180.9634246826172 149.6186981201172 178.4720458984375 152.0642700195312 175.6650543212891 154.2374267578125 C 172.8615264892578 156.4079132080078 169.7100982666016 158.3332824707031 166.2982635498047 159.9601135253906 C 162.8913726806641 161.5845947265625 159.1291046142578 162.9570159912109 155.1159515380859 164.0392150878906 C 147.1055755615234 166.1993255615234 137.7559509277344 167.2945861816406 127.3268432617188 167.2945861816406 M 1.579986572265625 -15.08004760742188 L 166.1842651367188 -15.08004760742188 C 188.8510437011719 -15.08004760742188 208.6395721435547 -11.75192260742188 225.5497436523438 -5.095733642578125 C 242.4598999023438 1.560394287109375 256.40185546875 10.64505004882812 267.3754272460938 22.158447265625 C 278.3490600585938 33.6717529296875 286.6242065429688 46.9840087890625 292.2009887695312 62.09527587890625 C 297.7777404785156 77.20648193359375 300.5660400390625 93.39712524414062 300.5660400390625 110.6671142578125 C 300.5660400390625 141.6091766357422 293.1004638671875 166.7046508789062 278.1690979003906 185.9534912109375 C 263.2378540039062 205.2023315429688 241.2006225585938 218.2447509765625 212.0575714111328 225.0807952880859 L 339.9631652832031 391.8441162109375 L 208.2797393798828 391.8441162109375 L 107.3584747314453 235.3348541259766 L 107.3584747314453 391.8441162109375 L 1.579986572265625 391.8441162109375 L 1.579986572265625 -15.08004760742188 Z M 127.3268432617188 166.7945861816406 C 148.1947326660156 166.7945861816406 164.2054138183594 162.4770660400391 175.3589477539062 153.8420715332031 C 186.5124664306641 145.2071228027344 192.0892028808594 132.7942810058594 192.0892028808594 116.6036987304688 C 192.0892028808594 100.4130554199219 186.5124664306641 88.00027465820312 175.3589477539062 79.36526489257812 C 164.2054138183594 70.730224609375 148.1947326660156 66.41281127929688 127.3268432617188 66.41281127929688 L 107.3584747314453 66.41281127929688 L 107.3584747314453 166.7945861816406 L 127.3268432617188 166.7945861816406 Z" stroke="none" fill="rgba(255,255,255,0.3)"/>
    </g>
  </g>
</svg>
